#!OML:ASF F:\VICON\USERDATA\INSTALL\rory3\rory3.ASF
:FULLY-SPECIFIED
:DEGREES
419
root 14.4425 15.837 -12.4134 -192.283 59.3005 -192.526
lowerback 8.22208 -0.444507 -6.22231
upperback -0.423901 -1.23716 -1.9015
thorax -4.97521 -0.446922 1.66147
lowerneck -10.6415 -8.89482 -12.902
upperneck 24.8542 -11.8888 10.232
head 11.2271 -5.30444 4.31011
rclavicle 3.73801e-014 4.52235e-015
rhumerus -38.6129 0.543146 -86.7602
rradius 32.0145
rwrist 7.70741
rhand -17.1318 14.8188
rfingers 7.12502
rthumb 9.10819 -14.9645
lclavicle 3.73801e-014 4.52235e-015
lhumerus -28.6222 1.74491 84.2855
lradius 29.8004
lwrist 1.63089
lhand -11.8292 12.911
lfingers 7.12502
lthumb 14.2216 42.4042
rfemur -28.6083 -3.55527 20.8973
rtibia 27.7766
rfoot -29.7896 -33.206
rtoes 25.0173
lfemur 14.6297 -1.95551 -34.4818
ltibia 1.27222e-014
lfoot -9.18359 17.489
ltoes -9.11423
420
root 14.5258 15.8301 -12.4583 -192.785 59.4135 -193.23
lowerback 7.98212 -0.417181 -6.52308
upperback -0.458851 -1.21204 -2.00515
thorax -4.87513 -0.428435 1.71475
lowerneck -10.5815 -8.96911 -13.0083
upperneck 24.8637 -12.013 10.3571
head 11.2531 -5.35806 4.35671
rclavicle 1.83922e-014 8.34896e-015
rhumerus -38.747 0.576572 -86.7688
rradius 31.9453
rwrist 7.50558
rhand -16.9219 14.0851
rfingers 7.12502
rthumb 9.31072 -15.6893
lclavicle 1.83922e-014 8.34896e-015
lhumerus -28.6795 1.59101 84.4886
lradius 29.5862
lwrist 1.66673
lhand -12.1493 12.7858
lfingers 7.12502
lthumb 13.9131 42.3004
rfemur -28.7215 -3.59398 20.7067
rtibia 27.8706
rfoot -30.7149 -33.4175
rtoes 26.198
lfemur 14.8806 -1.68144 -34.8382
ltibia -5.40694e-014
lfoot -9.26064 17.5251
ltoes -9.82874
421
root 14.6085 15.8248 -12.4997 -193.187 59.4868 -193.751
lowerback 7.84296 -0.436323 -6.78908
upperback -0.50383 -1.25256 -2.05143
thorax -4.83687 -0.44135 1.81756
lowerneck -10.5761 -9.04784 -13.1945
upperneck 24.9741 -12.1324 10.5063
head 11.336 -5.41028 4.42669
rclavicle -1.58903e-014 4.26393e-014
rhumerus -38.9218 0.642563 -86.7298
rradius 31.8505
rwrist 7.48878
rhand -16.7364 13.6251
rfingers 7.12502
rthumb 9.48972 -16.1412
lclavicle -1.58903e-014 4.26393e-014
lhumerus -28.7751 1.5517 84.6021
lradius 29.4085
lwrist 1.66226
lhand -12.2128 12.785
lfingers 7.12502
lthumb 13.8519 42.3037
rfemur -28.7272 -3.34761 20.4999
rtibia 28.0367
rfoot -32.1047 -33.3337
rtoes 28.5398
lfemur 15.1693 -1.45579 -35.0753
ltibia 2.22639e-014
lfoot -9.30457 17.5461
ltoes -10.0956
422
root 14.6905 15.8208 -12.54 -193.398 59.5392 -194.112
lowerback 7.68138 -0.499454 -6.99329
upperback -0.588544 -1.34582 -2.06324
thorax -4.82346 -0.480746 1.92754
lowerneck -10.6482 -9.12556 -13.3424
upperneck 25.1659 -12.2345 10.5766
head 11.4553 -5.45576 4.46275
rclavicle 7.43548e-014 -8.89561e-015
rhumerus -39.0891 0.599858 -86.6114
rradius 31.6657
rwrist 7.59856
rhand -16.6502 13.7826
rfingers 7.12502
rthumb 9.57284 -15.9799
lclavicle 7.43548e-014 -8.89561e-015
lhumerus -28.8678 2.04707 84.5563
lradius 29.0928
lwrist 1.24348
lhand -12.0633 12.538
lfingers 7.12502
lthumb 13.996 42.0468
rfemur -28.7787 -3.18934 20.3966
rtibia 28.2406
rfoot -32.6307 -33.4115
rtoes 30.7355
lfemur 15.3998 -1.2867 -35.2067
ltibia 7.95139e-015
lfoot -9.34661 17.4718
ltoes -10.2363
423
root 14.7731 15.8162 -12.5806 -193.407 59.6173 -194.283
lowerback 7.50684 -0.487991 -7.02187
upperback -0.711805 -1.32581 -2.07202
thorax -4.85589 -0.467216 1.9299
lowerneck -10.5136 -9.25808 -13.5515
upperneck 25.291 -12.4254 10.678
head 11.5287 -5.55003 4.51186
rclavicle 1.28554e-014 -3.15571e-015
rhumerus -39.3452 0.475434 -86.4227
rradius 31.4635
rwrist 7.48021
rhand -16.6963 14.1007
rfingers 7.12502
rthumb 9.52838 -15.6638
lclavicle 1.28554e-014 -3.15571e-015
lhumerus -28.9744 2.15948 84.6844
lradius 28.7745
lwrist 1.08453
lhand -11.9446 12.2757
lfingers 7.12502
lthumb 14.1104 41.7766
rfemur -28.8201 -3.24779 20.4681
rtibia 28.4134
rfoot -31.9139 -33.9215
rtoes 31.0873
lfemur 15.6096 -1.12627 -35.2311
ltibia -3.18055e-015
lfoot -9.36761 17.3716
ltoes -10.3736
424
root 14.8574 15.8103 -12.622 -193.536 59.6617 -194.57
lowerback 7.31407 -0.511765 -7.11082
upperback -0.786028 -1.35275 -2.12059
thorax -4.82208 -0.477771 1.92899
lowerneck -10.2906 -9.35699 -13.7433
upperneck 25.305 -12.6072 10.8952
head 11.5483 -5.63099 4.60444
rclavicle 1.00429e-014 -9.6659e-015
rhumerus -39.5398 0.432341 -86.3781
rradius 31.3101
rwrist 7.449
rhand -16.7919 14.1015
rfingers 7.12502
rthumb 9.43615 -15.6672
lclavicle 1.00429e-014 -9.6659e-015
lhumerus -29.0614 2.21098 84.7841
lradius 28.482
lwrist 0.962242
lhand -12.0128 12.158
lfingers 7.12502
lthumb 14.0446 41.6635
rfemur -28.7776 -3.3104 20.4428
rtibia 28.5594
rfoot -31.0643 -34.4336
rtoes 30.5792
lfemur 15.8497 -0.977404 -35.3301
ltibia 3.65764e-014
lfoot -9.34308 17.2927
ltoes -10.6421
425
root 14.9433 15.8043 -12.665 -193.576 59.7136 -194.662
lowerback 7.16723 -0.63257 -7.10648
upperback -0.780494 -1.50005 -2.19087
thorax -4.72244 -0.553905 1.86669
lowerneck -10.2622 -9.40585 -13.7175
upperneck 25.3313 -12.7498 11.1221
head 11.5894 -5.66709 4.66518
rclavicle 3.53681e-014 5.06901e-015
rhumerus -39.6321 0.364974 -86.5
rradius 31.2335
rwrist 7.65652
rhand -16.8617 13.7555
rfingers 7.12502
rthumb 9.36881 -16.0163
lclavicle 3.53681e-014 5.06901e-015
lhumerus -29.1142 2.47572 84.6394
lradius 28.2604
lwrist 0.74375
lhand -12.1111 12.1883
lfingers 7.12502
lthumb 13.9499 41.7003
rfemur -28.5618 -3.16377 20.4519
rtibia 28.6521
rfoot -30.8427 -34.768
rtoes 30.9796
lfemur 16.1843 -0.824521 -35.3261
ltibia 4.77083e-015
lfoot -9.31306 17.2395
ltoes -10.711
426
root 15.0342 15.8003 -12.7086 -193.446 59.8703 -194.512
lowerback 7.03417 -0.711074 -6.99334
upperback -0.814463 -1.58579 -2.19083
thorax -4.67824 -0.600634 1.81073
lowerneck -10.1499 -9.47554 -13.7666
upperneck 25.3926 -12.9024 11.2999
head 11.6318 -5.72155 4.72191
rclavicle 2.06736e-014 1.27222e-014
rhumerus -39.9496 0.062702 -86.3858
rradius 31.3385
rwrist 7.99916
rhand -16.7497 13.6143
rfingers 7.12502
rthumb 9.47686 -16.1526
lclavicle 2.06736e-014 1.27222e-014
lhumerus -29.3008 2.85869 84.515
lradius 28.0606
lwrist 0.490447
lhand -11.9521 12.1116
lfingers 7.12502
lthumb 14.1032 41.613
rfemur -28.2515 -2.90523 20.5939
rtibia 28.75
rfoot -31.0932 -34.9182
rtoes 31.002
lfemur 16.5774 -0.59898 -35.1363
ltibia -4.77083e-014
lfoot -9.36007 17.0627
ltoes -10.3531
427
root 15.1261 15.7988 -12.7524 -193.141 60.0516 -194.191
lowerback 6.87468 -0.753482 -6.83199
upperback -0.879919 -1.61883 -2.11187
thorax -4.65559 -0.621735 1.80423
lowerneck -10.0283 -9.57615 -13.9418
upperneck 25.5114 -13.0692 11.4483
head 11.7057 -5.79649 4.7875
rclavicle 6.02915e-015 5.04913e-014
rhumerus -40.3336 -0.17722 -86.169
rradius 31.4713
rwrist 8.24879
rhand -16.6792 13.7593
rfingers 7.12502
rthumb 9.54483 -16.0045
lclavicle 6.02915e-015 5.04913e-014
lhumerus -29.4886 3.05641 84.5355
lradius 27.7749
lwrist 0.387206
lhand -11.8946 11.9773
lfingers 7.12502
lthumb 14.1586 41.4749
rfemur -27.9252 -2.6418 20.7986
rtibia 28.8458
rfoot -31.7317 -34.7502
rtoes 30.684
lfemur 16.9412 -0.379937 -34.8406
ltibia 2.54444e-014
lfoot -9.39719 16.9006
ltoes -10.5026
428
root 15.2161 15.7922 -12.7946 -193.313 60.1063 -194.542
lowerback 6.66301 -0.834139 -7.03234
upperback -0.948105 -1.72662 -2.11697
thorax -4.59372 -0.669973 1.91742
lowerneck -10.1592 -9.67866 -14.0385
upperneck 25.737 -13.2036 11.4656
head 11.8512 -5.85443 4.78834
rclavicle -1.42523e-014 -1.3418e-014
rhumerus -40.4144 -0.168864 -86.0601
rradius 31.2518
rwrist 8.30809
rhand -16.6724 14.0323
rfingers 7.12502
rthumb 9.55148 -15.7312
lclavicle -1.42523e-014 -1.3418e-014
lhumerus -29.647 3.28965 84.5665
lradius 27.5194
lwrist 0.265188
lhand -11.9803 11.961
lfingers 7.12502
lthumb 14.076 41.4643
rfemur -27.7204 -2.39228 20.5941
rtibia 28.9383
rfoot -32.391 -34.2888
rtoes 31.6298
lfemur 17.1738 -0.22348 -34.946
ltibia -1.90833e-014
lfoot -9.30853 16.8249
ltoes -10.9619
429
root 15.3079 15.7878 -12.836 -193.512 60.0961 -194.911
lowerback 6.47119 -0.973064 -7.22213
upperback -1.00169 -1.91121 -2.12695
thorax -4.52077 -0.757082 2.02667
lowerneck -10.2949 -9.74984 -14.0962
upperneck 25.8601 -13.2842 11.4332
head 11.9423 -5.89403 4.76899
rclavicle -5.18948e-014 1.15544e-014
rhumerus -40.3737 0.0373098 -85.9954
rradius 30.8352
rwrist 8.3534
rhand -16.7415 13.9195
rfingers 7.12502
rthumb 9.48479 -15.847
lclavicle -5.18948e-014 1.15544e-014
lhumerus -29.847 3.94201 84.4868
lradius 27.2909
lwrist -0.289576
lhand -11.9415 11.9666
lfingers 7.12502
lthumb 14.1134 41.4673
rfemur -27.4996 -2.27397 20.4151
rtibia 29.0578
rfoot -32.1195 -34.2527
rtoes 32.2383
lfemur 17.4392 -0.121708 -35.0827
ltibia -2.8625e-014
lfoot -9.10311 16.7872
ltoes -11.3971
